<!-- icon666.com - MILLIONS vector ICONS FREE --><svg id="Capa_1" enable-background="new 0 0 512 512" viewBox="0 0 512 512" xmlns="http://www.w3.org/2000/svg" xmlns:xlink="http://www.w3.org/1999/xlink"><linearGradient id="SVGID_1_" gradientUnits="userSpaceOnUse" x1="256" x2="256" y1="481" y2="31"><stop offset="0" stop-color="#a93aff"></stop><stop offset="1" stop-color="#ff81ff"></stop></linearGradient><g><g><path d="m269.01 38.535c-2.674-4.661-7.637-7.535-13.01-7.535s-10.336 2.874-13.01 7.535l-241 420c-2.664 4.642-2.652 10.352.03 14.982 2.682 4.631 7.628 7.483 12.98 7.483h482c5.352 0 10.298-2.852 12.98-7.483s2.693-10.341.03-14.982zm-228.109 412.465 215.099-374.861 215.099 374.861zm111.683-111.708c-2.111 4.223-2.111 9.193 0 13.416 1.394 2.789 34.933 68.292 103.416 68.292s102.022-65.503 103.417-68.292c2.111-4.223 2.111-9.193 0-13.416-1.395-2.789-34.934-68.292-103.417-68.292s-102.022 65.503-103.416 68.292zm175.973 6.708c-9.19 14.022-33.874 45-72.557 45-38.698 0-63.387-31.002-72.558-44.998 9.188-14.021 33.872-45.002 72.558-45.002 38.683 0 63.367 30.978 72.557 45zm-87.557 0c0 8.284 6.716 15 15 15s15-6.716 15-15-6.716-15-15-15-15 6.716-15 15zm-226-45h31c8.284 0 15-6.716 15-15s-6.716-15-15-15h-31c-8.284 0-15 6.716-15 15s6.716 15 15 15zm436-15c0 8.284 6.716 15 15 15h31c8.284 0 15-6.716 15-15s-6.716-15-15-15h-31c-8.284 0-15 6.716-15 15zm-97.5-168.875c7.142 4.125 16.331 1.715 20.49-5.49l15-25.981c4.142-7.174 1.684-16.348-5.49-20.49-7.175-4.144-16.349-1.685-20.49 5.49l-15 25.981c-4.142 7.174-1.684 16.348 5.49 20.49zm-312.846 61.865 25.981 15c7.142 4.125 16.331 1.715 20.49-5.49 4.142-7.174 1.684-16.348-5.49-20.49l-25.981-15c-7.175-4.144-16.349-1.684-20.49 5.49-4.142 7.174-1.684 16.348 5.49 20.49zm97.356-67.355c4.163 7.21 13.35 9.613 20.49 5.49 7.174-4.142 9.632-13.316 5.49-20.49l-15-25.981c-4.142-7.174-13.316-9.633-20.49-5.49-7.174 4.142-9.632 13.316-5.49 20.49zm307.355 82.355 25.981-15c7.174-4.142 9.632-13.316 5.49-20.49s-13.316-9.633-20.49-5.49l-25.981 15c-7.174 4.142-9.632 13.316-5.49 20.49 4.163 7.21 13.35 9.613 20.49 5.49z" fill="url(#SVGID_1_)"></path></g></g></svg>